{"title":"San Andreas 2015 1080p WEB-DL H264 VICTRY","uid":12298310,"size":2653369592,"categoryP":"video","categoryS":"hd___movies","magnet":"?xt=urn:btih:72e4cfc990802363c751b118353c111c8d12b587&amp;dn=San+Andreas+2015+1080p+WEB-DL+H264+VICTRY&amp;tr=udp%3A%2F%2Ftracker.openbittorrent.com%3A80&amp;tr=udp%3A%2F%2Fopen.demonii.com%3A1337&amp;tr=udp%3A%2F%2Ftracker.coppersurfer.tk%3A6969&amp;tr=udp%3A%2F%2Fexodus.desync.com%3A6969","seeders":13,"leechers":4,"uploader":null,"files":2,"time":1440659825,"description":"For Sample And Direct Download go here http://victry.cc/72e4cfc990802363c751b118353c111c8d12b587\n\n\n\nSan Andreas 2015 1080p WEB-DL H264 VICTRY\n &lt;a href=&quot;\nhttp://www.imdb.com/title/tt2126355/&quot; rel=&quot;nofollow&quot; target=&quot;_NEW&quot;&gt;\nhttp://www.imdb.com/title/tt2126355/&lt;/a&gt;\n\nIn the aftermath of a massive earthquake in California, a rescue-chopper pilot makes a dangerous journey with his ex-wife across the state in order to rescue his daughter.\n\nDirector: Brad Peyton\nWriters: Carlton Cuse (screenplay), Andre Fabrizio (story), 1 more credit Â»\nStars: Dwayne Johnson, Carla Gugino, Alexandra Daddario | See full cast and crew Â»\n\nFormat : MPEG-4\nFormat profile : Base Media / Version 2\nCodec ID : mp42\nFile size : 2.47 GiB\nDuration : 1h 54mn\nOverall bit rate : 3 092 Kbps\nCodirector : codirector\nProduction studio : studio\nContentType : Unknown Type\nEncoded date : UTC 2015-08-26 16:41:49\nTagged date : UTC 2015-08-26 16:41:49\n\nVideo\nID : 1\nFormat : AVC\nFormat/Info : Advanced Video Codec\nFormat profile : High@L5\nFormat settings, CABAC : No\nFormat settings, ReFrames : 1 frame\nFormat settings, GOP : M=1, N=25\nMuxing mode : Container profile=&lt;a class=&quot;__cf_email__&quot; href=&quot;/cdn-cgi/l/email-protection&quot; data-cfemail=&quot;d193b0a2b4bdb8bfb491e5ffe0&quot;&gt;[email&amp;#160;protected]&lt;/a&gt;&lt;script data-cfhash='f9e31' type=&quot;text/javascript&quot;&gt;\n/* &lt;![CDATA[ */!function(){try{var t=&quot;currentScript&quot;in document?document.currentScript:function(){for(var t=document.getElementsByTagName(&quot;script&quot;),e=t.length;e--;)if(t[e].getAttribute(&quot;data-cfhash&quot;))return t[e]}();if(t&amp;&amp;t.previousSibling){var e,r,n,i,c=t.previousSibling,a=c.getAttribute(&quot;data-cfemail&quot;);if(a){for(e=&quot;&quot;,r=parseInt(a.substr(0,2),16),n=2;a.length-n;n+=2)i=parseInt(a.substr(n,2),16)^r,e+=String.fromCharCode(i);e=document.createTextNode(e),c.parentNode.replaceChild(e,c)}t.parentNode.removeChild(t);}}catch(u){}}()/* ]]&gt; */&lt;/script&gt;\nCodec ID : avc1\nCodec ID/Info : Advanced Video Coding\nDuration : 1h 54mn\nBit rate : 2 959 Kbps\nNominal bit rate : 4 000 Kbps\nWidth : 1 920 pixels\nHeight : 1 080 pixels\nDisplay aspect ratio : 16:9\nFrame rate mode : Constant\nFrame rate : 23.976 fps\nColor space : YUV\nChroma subsampling : 4:2:0\nBit depth : 8 bits\nScan type : Progressive\nBits/(Pixel*Frame) : 0.060\nStream size : 2.36 GiB (96%)\nWriting library : x264 core 132\nEncoding settings : cabac=0 / ref=1 / deblock=1:0:0 / analyse=0x3:0 / me=dia / subme=7 / psy=1 / psy_rd=1.00:0.00 / mixed_ref=0 / me_range=16 / chroma_me=1 / trellis=1 / 8x8dct=1 / cqm=0 / deadzone=21,11 / fast_pskip=1 / chroma_qp_offset=-2 / threads=12 / lookahead_threads=2 / sliced_threads=0 / nr=0 / decimate=1 / interlaced=0 / bluray_compat=0 / constrained_intra=0 / bframes=0 / weightp=2 / keyint=25 / keyint_min=13 / scenecut=40 / intra_refresh=0 / rc_lookahead=25 / rc=cbr / mbtree=1 / bitrate=4000 / ratetol=0.9 / qcomp=0.50 / qpmin=3 / qpmax=30 / qpstep=3 / vbv_maxrate=4000 / vbv_bufsize=3600 / nal_hrd=none / ip_ratio=1.25 / aq=1:1.00\nLanguage : English\n\nAudio\nID : 2\nFormat : AAC\nFormat/Info : Advanced Audio Codec\nFormat profile : LC\nCodec ID : 40\nDuration : 1h 54mn\nBit rate mode : Constant\nBit rate : 128 Kbps\nChannel(s) : 2 channels\nChannel positions : Front: L R\nSampling rate : 48.0 KHz\nCompression mode : Lossy\nStream size : 105 MiB (4%)\nTitle : Stereo\nLanguage : English\n\nScreens:\n &lt;a href=&quot;\nhttp://i.imgur.com/LZcpmnT.png&quot; rel=&quot;nofollow&quot; target=&quot;_NEW&quot;&gt;\nhttp://i.imgur.com/LZcpmnT.png&lt;/a&gt; &lt;a href=&quot;\nhttp://i.imgur.com/8q8herp.png&quot; rel=&quot;nofollow&quot; target=&quot;_NEW&quot;&gt;\nhttp://i.imgur.com/8q8herp.png&lt;/a&gt; &lt;a href=&quot;\nhttp://i.imgur.com/9lnjubt.png&quot; rel=&quot;nofollow&quot; target=&quot;_NEW&quot;&gt;\nhttp://i.imgur.com/9lnjubt.png&lt;/a&gt; &lt;a href=&quot;\nhttp://i.imgur.com/H5egvXM.png&quot; rel=&quot;nofollow&quot; target=&quot;_NEW&quot;&gt;\nhttp://i.imgur.com/H5egvXM.png&lt;/a&gt;","torrent":{"xt":"urn:btih:72e4cfc990802363c751b118353c111c8d12b587","amp;dn":"San+Andreas+2015+1080p+WEB-DL+H264+VICTRY","amp;tr":["udp%3A%2F%2Ftracker.openbittorrent.com%3A80","udp%3A%2F%2Fopen.demonii.com%3A1337","udp%3A%2F%2Ftracker.coppersurfer.tk%3A6969","udp%3A%2F%2Fexodus.desync.com%3A6969"],"infoHash":"72e4cfc990802363c751b118353c111c8d12b587","infoHashBuffer":{"type":"Buffer","data":[114,228,207,201,144,128,35,99,199,81,177,24,53,60,17,28,141,18,181,135]},"announce":[],"urlList":[]}}